<svg width="20" height="20" viewBox="0 0 20 20" fill="none" xmlns="http://www.w3.org/2000/svg">
<circle cx="10" cy="10" r="9.5" fill="#E5E8F1"/>
<path fill-rule="evenodd" clip-rule="evenodd" d="M6.98265 6.46447L9.92893 9.41074L12.8752 6.46447C13.0378 6.30183 13.3018 6.30183 13.4645 6.46447C13.6271 6.6271 13.6271 6.89109 13.4645 7.05372L10.5182 10L13.4645 12.9463C13.6271 13.1089 13.6271 13.3729 13.4645 13.5355C13.3018 13.6982 13.0378 13.6982 12.8752 13.5355L9.92893 10.5893L6.98265 13.5355C6.82002 13.6982 6.55603 13.6982 6.3934 13.5355C6.23076 13.3729 6.23076 13.1089 6.3934 12.9463L9.33968 10L6.3934 7.05372C6.23076 6.89109 6.23076 6.6271 6.3934 6.46447C6.55603 6.30183 6.82002 6.30183 6.98265 6.46447Z" fill="#939EB3" stroke="#939EB2" stroke-width="0.5"/>
</svg>
