<svg width="16" height="16" viewBox="0 0 16 16" fill="none" xmlns="http://www.w3.org/2000/svg">
<path fill-rule="evenodd" clip-rule="evenodd" d="M8 0C12.4183 0 16 3.58172 16 8C16 12.4183 12.4183 16 8 16C3.58172 16 0 12.4183 0 8C0 3.58172 3.58172 0 8 0ZM8.93023 6.69767H7.06977V12.6512H8.93023V6.69767ZM8 3.72093C7.48951 3.72093 7.06977 4.14067 7.06977 4.66251C7.06977 5.16166 7.48951 5.58139 8 5.58139C8.52184 5.58139 8.93023 5.16166 8.93023 4.66251C8.93023 4.14067 8.52184 3.72093 8 3.72093Z" fill="currentColor"/>
</svg>
