<svg width="13" height="10" fill="none" xmlns="http://www.w3.org/2000/svg"><path d="M5.778 2.143c0 .568-.228 1.113-.635 1.515a2.179 2.179 0 01-1.532.628 2.179 2.179 0 01-1.532-.628 2.131 2.131 0 01-.635-1.515c0-.568.229-1.114.635-1.515A2.179 2.179 0 013.611 0c.575 0 1.126.226 1.532.628.407.401.635.947.635 1.515zm5.778 0a2.122 2.122 0 01-.635 1.515 2.169 2.169 0 01-1.532.628 2.188 2.188 0 01-1.532-.628 2.14 2.14 0 01-.635-1.515c0-.568.229-1.114.635-1.515A2.179 2.179 0 019.389 0c.574 0 1.126.226 1.532.628.406.401.635.947.635 1.515zM8.616 10a4.944 4.944 0 00-1.033-3.807 3.642 3.642 0 013.611 0A3.593 3.593 0 0112.516 7.5c.317.543.484 1.159.484 1.786V10H8.616zM3.611 5.714c.958 0 1.876.377 2.554 1.046a3.552 3.552 0 011.057 2.526V10H0v-.714C0 8.339.38 7.43 1.058 6.76A3.632 3.632 0 013.61 5.714z" fill="#121C48"/></svg>