<?xml version="1.0" encoding="utf-8"?>
<svg xmlns="http://www.w3.org/2000/svg" viewBox="0 0 11 16" width="11" height="16">
    <path fill="currentColor" d="M7.91 13.6V6.47H6.62c-.21 0-.21 0-.21.23V13.6h1.5zm-4.52.01h1.29c.21 0 .21 0 .21-.23V6.7v-.12c-.02-.04-.07-.1-.1-.1H3.4v7.13zM1.1 4.1h9.1v10.25c0 .95-.66 1.64-1.56 1.64H2.66c-.9 0-1.56-.7-1.56-1.64V4.3 4.1zM0 3.52v-1.8h.2l2.76-.01c.09 0 .2-.06.27-.13.2-.21.38-.45.58-.66.06-.07.15-.11.23-.11H6.9c.07 0 .16.04.22.1.2.22.38.46.59.67.06.07.17.13.27.13h2.95v1.81H0z" fillRule="evenodd" />
</svg>